<svg xmlns="http://www.w3.org/2000/svg" viewBox="0 0 293.7 70" height="70" width="294" class="undefined"><style>.a{fill:#ae5570;stroke-width:0.05;}.b{fill:#609da1;stroke-width:0.05;}.c{-inkscape-font-specification:'Open Sans Bold';fill:#0d0d0d;font-family:'Open Sans';font-size:5px;font-weight:bold;letter-spacing:-0.2px;line-height:5px;stroke-width:1px;word-spacing:0.2px;}.d{fill:#0d0d0d;stroke-width:0.05;}</style><title class="undefined">  Logotip</title><g transform="translate(0 44.668073)matrix(0.78640239 0 0 0.78640239 9.2135822 -2.0650741)" class="undefined"><path d="M24.3 21.9C22.8 21.6 21.3 21.2 18.3 20.3 15.2 19.5 12.9 18.9 9.4 18 7.2 17.5 5.1 17 4.9 16.9 3.6 16.5 2.3 16.2 1 15.8L1 9.7 1 3.5c0.8 0 1.7 0.1 2.5 0.1 4 0.2 8.5 0.4 12.3 0.6 1.2 0.1 5.1 0.2 6 0.2 0.3 0 0.4 0 0.5 0.1 0.1 0.1 0.2 0.1 0.3 0.5 0 0.2 0 0.1-0.4 0.6-0.2 0.3-0.2 0.3-0.5 0.5-2 0.8-4.4 1.3-6 1.3-0.4 0-0.3 0.1 0.2 0.1 0.9 0.2 1.7 0.3 2.7 0.4 0.2 0.1 1.5 0.2 2.9 0.3 0.4 0 1 0.1 1.3 0.1 4.1 0.3 12 0.6 12.4 1l0 0.1 0.2 0.3c0.4 0.6 0.5 1.1 0.2 1.3-0.3 0.3-1.1 0.4-3.7 0.5-2.6 0.1-9.5-0.1-11.4-0.4-0.7-0.1-1-0.1-0.8-0.1 0.1 0 0.3 0.1 0.5 0.1 0.8 0.2 1.5 0.4 2.4 0.6 2.4 0.6 4.7 1.1 6.9 1.6 1.5 0.3 2.8 0.7 4.2 1.1 0 0 0.1 0.2 0.1 0.3 0.3 0.5 0.3 0.8 0.3 1.1 0 0.2-0.1 0.3-0.2 0.4-0.2 0.2-0.7 0.3-0.8 0.3-0.1 0-0.6-0.1-1.2-0.1-1.1-0.1-1.2-0.1-3-0.3-2.8-0.3-6.5-1-8.9-1.5-0.5-0.1-1-0.2-1-0.2-0.1 0 0.2 0.2 0.6 0.3 0.4 0.2 0.8 0.3 1.2 0.5 0.6 0.2 1.2 0.4 1.8 0.6 2.3 0.6 4.5 1.2 6.7 1.7 0.6 0.2 0.7 0.2 0.8 0.3 0.3 0.7 0.4 0.9 0.4 0.9 0.1 0 0 0.5-0.2 0.7-0.1 0.1-0.2 0.2-0.4 0.2-0.2 0.1-0.3 0.1-0.7 0.1-1.1-0.1-3.6-0.5-5.5-0.9-1-0.2-1.1-0.2-0.6 0 0.9 0.4 1.8 0.7 2.8 1.1 0.2 0.2 0.3 0.7 0.5 1 0.1 0-0.1 0.5-0.2 0.7-0.1 0.1-0.6 0.3-0.8 0.3-0.1 0-0.5-0.1-1.1-0.2zM26.4 5.8C26.6 5.7 26.9 5.3 27.2 4.8 27.6 4 28.3 3 29.7 0.7 32.2-3.1 33.3-5.4 33.6-7.9c0.1-0.9 0.1-2.6 0-3.3-0.4-2.2-1.6-4-4.2-6.4-0.7-0.6-2-1.8-2.8-2.4-0.8-0.6-2.7-2.3-2.8-2.4 0 0 0-0.1 0-0.1 0 0 0-0.1 0-0.1-0.1-0.1-0.1-0.1 0.2-0.1 0.3 0 1.4-0.3 4.6-1.2 4.2-1.2 5.6-1.7 8.5-3 1.9-0.9 2.9-1.3 3.7-1.6 0.4-0.1 0.8-0.3 0.9-0.3 0.2-0.1 2.1-0.7 2.1-0.7 0 0-0.3 0.6-0.6 1.2-1.9 3.7-3.1 7.5-3.6 10.7-0.1 0.9-0.2 3.3-0.2 3.9 0.2 1.7 0.7 2.9 1.7 4 0.6 0.7 1 1 2 1.6 1.9 1.1 3.6 2 5.5 3.2 0.3 0.2 0.5 0.3 0.6 0.3 0 0 0.1 0.1 0.2 0.2 0.1 0.1 0.2 0.2 0.3 0.2l0.2 0.1c-0.5 0.2-1.1 0.3-1.6 0.4-1.7 0.4-2 0.4-3.1 0.7-4.1 1.1-6.6 2-8.9 3.3-1.1 0.6-1.7 1-3.3 2.1-2.1 1.4-2.9 1.9-4 2.5-1.1 0.5-2.2 0.9-2.9 1l-0.3 0z" class="a"/><path d="m58.2 22c-0.2-0.1-0.3-0.4-0.3-0.8 0-0.3 0-0.4 0.2-0.7 0.1-0.2 0.2-0.4 0.2-0.4 0.4-0.1 0.8-0.3 1.2-0.5 0.7-0.3 1.4-0.5 2.1-0.8 0.1 0 0.3-0.1 0.3-0.1 0 0-0.5 0.1-1 0.2-3 0.6-4.4 0.8-6.1 1-0.4 0.1-0.5 0.1-0.7 0-0.5-0.2-0.5-1 0-1.7 0.2-0.3 0.3-0.3 1-0.5 0.8-0.2 1.5-0.4 2.3-0.6 1-0.2 2.1-0.5 3-0.7 1.3-0.3 2.4-0.7 3.5-1.1 0.5-0.2 1.1-0.4 1.6-0.6 0.2-0.1 0.4-0.2 0.3-0.2-0.1 0-1.3 0.3-2.6 0.5-1.4 0.3-6.2 1.1-8.4 1.4-0.3 0-0.7 0.1-0.9 0.1-1 0.1-1.9 0.2-2.9 0.2-0.3 0.1-0.7 0-0.8-0.2-0.1-0.2-0.2-0.7-0.1-1 0.1-0.3 0.3-0.6 0.5-0.8 0.1-0.1 0.4-0.2 1.1-0.4 2-0.6 4-1 6-1.5 1.3-0.3 1.9-0.4 3-0.7 1.2-0.3 2.4-0.6 3.8-1 0.2-0.1 0.1-0.1-0.3 0-0.3 0-0.6 0.1-0.8 0.1-0.5 0.1-3.2 0.2-6.2 0.3-4.2 0.1-8 0-8.4-0.3-0.2-0.1-0.3-0.3-0.3-0.6 0-0.3 0.2-0.7 0.6-1.3 0.1-0.1 0.3-0.1 1-0.2 1.5-0.2 2.8-0.3 4.3-0.4 2.1-0.1 4.4-0.3 6.5-0.4 1.4-0.1 2.7-0.2 4.1-0.4 1-0.1 1.9-0.3 2.9-0.4 0.3 0 0.6-0.1 0.8-0.1l0.3-0.1-0.5 0C66.7 7.3 65.2 7 63.1 6.3 62.1 6 62 6 62 5.8 61.9 5.7 61.8 5.6 61.7 5.5 61.5 5.3 61.5 5 61.7 4.7c0.2-0.3 0.3-0.3 0.7-0.3 0.9 0 4.3-0.1 9.6-0.4 4 0 7.2-0.6 11.1-0.4 0 0 0 0.1 0 0.1 0 0 0.1 1.8 0.1 5.9v5.9l-0.3 0.1c-1.1 0.4-2.4 0.7-3.4 1-0.7 0.2-2.2 0.6-3.3 0.9-2.5 0.7-3.5 0.9-5.2 1.3-1.5 0.4-1.9 0.5-5.5 1.5-3.1 0.9-4.7 1.3-6.1 1.6-1 0.2-1.1 0.2-1.3 0.1zM77.8-4.7c0 0-0.1-0.5-0.2-1.1-0.7-7.3-3.5-14.1-8.1-19.7-0.8-1-1.6-1.9-2.5-2.7-1.6-1.8-3.6-3.4-5.4-4.5-5.1-3.2-11.5-5.2-16.6-5.8-1.3-0.1-5.2-0.1-6.5 0-6.1 0.6-11.4 2.5-16.4 5.8-3.2 2.1-6.3 5-8.7 8.2-0.5 0.6-1.6 2.4-2.2 3.3-1.3 2.1-2.2 4.2-3 6.5-0.1 0.3-0.2 0.6-0.2 0.7 0 0.2-0.1 0.1 1.3 0.4-1.1 2.4-2.3 4.8-3.4 7 0 0-0.9 1.9-1 2 0 0-0.1 0-0.1 0L3.6-14.7c1.4 0.2 1.2 0.3 1.3 0.1l0.2-0.7c1.8-5.5 4.8-10.4 9-14.7 0.3-0.3 0.6-0.6 0.9-0.8 6-5.7 13.9-9.4 22.3-10.4 1.9-0.2 2.4-0.2 4.9-0.2 2.5 0 3 0 4.9 0.2 4 0.5 8 1.6 11.6 3.2 6.6 3.1 12.6 8.2 16.4 14.3 2.2 3.5 3.6 6.9 4.5 10.6 0.7 2.7 1 5.6 1.1 8.3-0.6 0.2-1.1 0.1-1.6 0.2-1 0-1.2 0-1.2 0z" class="b"/><path d="m95.9-40.9h7.7q5.3 0 7.6 1.5 2.4 1.5 2.4 4.8 0 2.2-1 3.6-1 1.4-2.8 1.7v0.2q2.4 0.5 3.4 2 1 1.4 1 3.8 0 3.4-2.5 5.3-2.4 1.9-6.6 1.9h-9.3zm5.2 9.8h3q2.1 0 3.1-0.7 1-0.7 1-2.2 0-1.4-1-2-1-0.6-3.3-0.6h-2.8zm0 4.2v6.4h3.4q2.2 0 3.2-0.8 1-0.8 1-2.5 0-3.1-4.4-3.1z" class="c"/><path d="m132.7-16.1-1.8-5.9h-9l-1.8 5.9h-5.7l8.7-24.8h6.4l8.8 24.8zm-3-10.3q-2.5-8-2.8-9.1-0.3-1-0.4-1.7-0.6 2.2-3.2 10.7z" class="c"/><path d="m161.8-16.1h-6.7l-10.8-18.7h-0.2q0.3 5 0.3 7.1v11.6h-4.7v-24.7h6.6l10.7 18.5h0.1q-0.3-4.8-0.3-6.8v-11.7h4.7z" class="c"/><path d="m176.9-36.9q-3 0-4.6 2.2-1.6 2.2-1.6 6.2 0 8.3 6.2 8.3 2.6 0 6.3-1.3v4.4q-3 1.3-6.8 1.3-5.4 0-8.3-3.3-2.9-3.3-2.9-9.4 0-3.9 1.4-6.8 1.4-2.9 4-4.5 2.6-1.6 6.2-1.6 3.6 0 7.2 1.7l-1.7 4.3q-1.4-0.7-2.8-1.2-1.4-0.5-2.8-0.5z" class="c"/><path d="m216.4-28.7q0 6.1-3.5 9.4-3.5 3.2-10 3.2h-7v-24.7h7.8q6.1 0 9.4 3.2 3.4 3.2 3.4 8.9zm-5.4 0.1q0-8-7-8h-2.8v16.1h2.3q7.6 0 7.6-8.1z" class="c"/><path d="m234.2-16.1h-14.2v-24.7h14.2v4.3h-9v5.4h8.4v4.3h-8.4v6.4h9z" class="c"/><path d="m256.3-16.1h-5.2v-20.4h-6.7v-4.4h18.7v4.4h-6.7z" class="c"/><path d="m279.5-16.1h-14.2v-24.7h14.2v4.3h-9v5.4h8.4v4.3h-8.4v6.4h9z" class="c"/><path d="m293.6-16.1-6-19.4h-0.2q0.3 5.9 0.3 7.9v11.5h-4.7v-24.7h7.1l5.9 18.9h0.1l6.2-18.9h7.1v24.7h-4.9v-11.7q0-0.8 0-1.9 0-1.1 0.2-5.8H304.8l-6.4 19.4z" class="c"/><path d="m319.4-29.2h1.7q2.4 0 3.6-0.9 1.2-1 1.2-2.8 0-1.8-1-2.7-1-0.9-3.1-0.9h-2.4zm11.8-3.9q0 4-2.5 6.1-2.5 2.1-7.1 2.1h-2.3v8.8h-5.2v-24.7h7.9q4.5 0 6.8 1.9 2.4 1.9 2.4 5.8z" class="c"/><path d="m349-23q0 3.4-2.4 5.3-2.4 1.9-6.7 1.9-4 0-7-1.5v-4.9q2.5 1.1 4.2 1.6 1.7 0.5 3.2 0.5 1.7 0 2.6-0.7 0.9-0.7 0.9-2 0-0.7-0.4-1.3-0.4-0.6-1.2-1.1-0.8-0.5-3.2-1.7-2.3-1.1-3.4-2-1.1-1-1.8-2.3-0.7-1.3-0.7-3 0-3.3 2.2-5.2 2.2-1.9 6.2-1.9 1.9 0 3.7 0.5 1.8 0.5 3.7 1.3l-1.7 4.1q-2-0.8-3.3-1.1-1.3-0.3-2.5-0.3-1.5 0-2.3 0.7-0.8 0.7-0.8 1.8 0 0.7 0.3 1.2 0.3 0.5 1 1 0.7 0.5 3.3 1.7 3.5 1.7 4.8 3.3Q349-25.4 349-23Z" class="c"/><path d="m116.4 8.6q0 6.1-3.5 9.4-3.5 3.2-10 3.2H95.9V-3.5h7.8q6.1 0 9.4 3.2 3.4 3.2 3.4 8.9zm-5.4 0.1q0-8-7-8h-2.8V16.9h2.3q7.6 0 7.6-8.1z" class="c"/><path d="M134.2 21.2H119.9V-3.5h14.2v4.3h-9V6.2h8.4v4.3h-8.4v6.4h9z" class="c"/><path d="M137.8 21.2V-3.5h5.2V16.9h10v4.3z" class="c"/><path d="m164.7-3.5h7.7q5.3 0 7.6 1.5 2.4 1.5 2.4 4.8 0 2.2-1 3.6-1 1.4-2.8 1.7v0.2q2.4 0.5 3.4 2 1 1.4 1 3.8 0 3.4-2.5 5.3-2.4 1.9-6.6 1.9h-9.3zm5.2 9.8h3q2.1 0 3.1-0.7 1-0.7 1-2.2 0-1.4-1-2-1-0.6-3.3-0.6h-2.8zm0 4.2v6.4h3.4q2.2 0 3.2-0.8 1-0.8 1-2.5 0-3.1-4.4-3.1z" class="c"/><path d="M200.7 21.2H186.4V-3.5h14.2v4.3h-9V6.2h8.4v4.3h-8.4v6.4h9z" class="c"/><path d="m209.5 7.5h1.7q2.5 0 3.7-0.8 1.2-0.8 1.2-2.6 0-1.8-1.2-2.5-1.2-0.7-3.7-0.7h-1.6zm0 4.3v9.5h-5.2V-3.5h7.2q5 0 7.5 1.8 2.4 1.8 2.4 5.6 0 2.2-1.2 3.9-1.2 1.7-3.4 2.7 5.6 8.3 7.3 10.8h-5.8l-5.9-9.5z" class="c"/><path d="M234.9 7.4H244.7V20.2q-2.4 0.8-4.5 1.1-2.1 0.3-4.3 0.3-5.6 0-8.6-3.3-2.9-3.3-2.9-9.5 0-6 3.4-9.3 3.4-3.4 9.5-3.4 3.8 0 7.3 1.5l-1.7 4.2q-2.7-1.4-5.6-1.4-3.4 0-5.4 2.3-2 2.3-2 6.1 0 4 1.6 6.2 1.7 2.1 4.8 2.1 1.6 0 3.3-0.3v-5.2h-4.7z" class="c"/><path d="M269.2-3.5V12.5q0 2.7-1.2 4.8-1.2 2.1-3.5 3.2-2.3 1.1-5.5 1.1-4.8 0-7.4-2.4-2.6-2.5-2.6-6.7V-3.5h5.2V11.7q0 2.9 1.2 4.2 1.2 1.3 3.8 1.3 2.6 0 3.7-1.3 1.2-1.4 1.2-4.2V-3.5Z" class="c"/><path d="M287.9 21.2H273.6V-3.5h14.2v4.3h-9V6.2h8.4v4.3h-8.4v6.4h9z" class="c"/><path d="m312 8.6q0 6.1-3.5 9.4-3.5 3.2-10 3.2H291.5V-3.5h7.8q6.1 0 9.4 3.2 3.4 3.2 3.4 8.9zm-5.4 0.1q0-8-7-8h-2.8V16.9h2.3q7.6 0 7.6-8.1z" class="c"/><path d="m330.7 21.2-1.8-5.9h-9l-1.8 5.9h-5.7l8.7-24.8h6.4l8.8 24.8zM327.6 11Q325.1 3 324.8 1.9 324.5 0.9 324.4 0.2 323.8 2.4 321.2 11Zm-3.1-16.4q-1.1-0.7-3.1-2.4-2.1-1.7-3.2-2.8v-0.4h5.8q1.1 1.7 4 5.1v0.5z" class="c"/><path d="M24.3 21.9C22.8 21.6 21.3 21.2 18.3 20.3 15.2 19.5 12.9 18.9 9.4 18 7.2 17.5 5.1 17 4.9 16.9 4 16.6 1.5 15.9 1.3 15.9L1 15.8 1 9.7c0-4 0-6.1 0-6 0 0.1 0.1 2.2 0.1 5.9 0 5.1 0 5.8 0.1 5.9 0.1 0.1 0.3 0.2 2.2 0.8 1.3 0.4 2.4 0.7 8.3 2.1 3 0.7 6.2 1.6 9 2.4 0.8 0.2 3.3 0.9 4.1 1 0.4 0.1 0.8 0.2 0.8 0.2 0.1 0.1 0.1 0.1 0 0.1-0.2 0.1-0.3 0.1-1.3-0.2zm33.9 0.1c-0.2-0.1-0.3-0.4-0.3-0.8 0-0.3 0-0.4 0.2-0.8 0.2-0.4 0.3-0.4 0.1 0.2-0.1 0.3-0.1 0.4 0 0.7 0.2 0.5 0.4 0.7 1 0.6 0.5-0.1 0.9-0.2 1.3-0.3 1.2-0.3 2.3-0.5 2.4-0.6 0.9-0.2 1.6-0.5 2.3-0.7 0.8-0.2 1.5-0.4 2.3-0.6 0.9-0.3 1.6-0.5 2.5-0.7 1.1-0.3 1.9-0.5 2.9-0.7 0.8-0.2 1.6-0.4 2.5-0.7 1-0.3 1.7-0.5 2.6-0.7 1-0.2 1.8-0.4 2.7-0.7 0.6-0.2 1.1-0.3 1.7-0.5 0.3-0.1 0.5-0.1 0.4-0.1 0 0.1-0.3 0.1-1.7 0.5-0.3 0.1-1 0.3-1.7 0.4-0.7 0.2-2.2 0.6-3.3 0.9-2.5 0.7-3.5 0.9-5.2 1.3-1.5 0.4-1.9 0.5-5.5 1.5-3.1 0.9-4.7 1.3-6.1 1.6-1 0.2-1.1 0.2-1.3 0.1zM29 19.9c-0.7-0.1-2.7-0.4-3.7-0.6-2.1-0.4-3.1-0.6-3.2-0.7 0 0-0.2-0.1-0.3-0.1-0.2-0.1-0.3-0.1-0.3-0.1 2.7 0.4 5.6 1 7.7 1.3 0.6 0.1 0.8 0.1 0.6 0.2-0.1 0-0.4 0.1-0.8 0zm24.9 0c-0.5-0.2-0.4-1.2 0.1-1.8 0.1-0.1 0.1-0.1 0.1-0.1 0 0 0 0.1-0.1 0.1 0 0 0 0.2-0.1 0.4-0.1 0.5 0 1 0.3 1.1 0.3 0.1 0.5 0.1 1.7-0.1 0.7-0.1 1.4-0.2 2.2-0.3 0.8-0.1 1.5-0.3 2.2-0.4 0.2-0.1 2.3-0.4 2.3-0.4 0 0-0.7 0.3-0.9 0.3-0.1 0-0.7 0.1-1.1 0.2-2.5 0.5-4.1 0.7-5.9 1-0.6 0.1-0.6 0.1-0.8 0zm7.4-1c0 0 0.1-0.1 0.2-0.1 0.1 0 0.2 0 0.1 0-0.1 0.1-0.3 0.1-0.3 0.1zM33 16.7c0 0-0.5-0.1-1.1-0.1-0.6 0-1.3-0.1-1.5-0.1-3.7-0.4-7.4-1-10.2-1.6-0.7-0.1-1.3-0.3-1.3-0.2 0 0-0.1 0-0.1 0 0 0-0.3-0.1-0.5-0.2-0.2-0.1-0.4-0.2-0.4-0.2 0 0 0.2 0 0.4 0.1 0.2 0 0.6 0.1 0.8 0.1 0.2 0 0.6 0.1 0.9 0.2 1.6 0.4 2.4 0.5 4.5 0.9 1.8 0.3 3.5 0.6 5.4 0.8 0.1 0 0.6 0.1 1.1 0.1 0.7 0.1 1.5 0.1 2.4 0.1 0.3 0 0.3 0 0.2 0.1-0.2 0.1-0.6 0.1-0.6 0.1zM50.4 16.7c-0.3-0.1-0.4-0.2-0.4-0.6-0.1-0.5 0.1-1 0.5-1.4 0.1-0.1 0.1-0.1 0 0.1-0.3 0.6-0.3 1.3 0 1.5 0.2 0.2 0.6 0.2 0.8 0.2 0.6 0 1.2-0.1 1.8-0.1 1.2-0.1 2.2-0.2 3.3-0.4 1.1-0.1 2.4-0.4 3.4-0.5 1.7-0.3 4-0.7 4.4-0.8 0.1 0 0.6-0.1 1.1-0.2 0.5-0.1 0.9-0.2 1-0.2 0.1 0 0.1 0 0.1 0 0 0.1-0.3 0.2-0.8 0.3-0.3 0-1.1 0.2-1.8 0.4-2.1 0.5-6.4 1.2-9 1.5-0.5 0.1-1 0.1-1.5 0.2-0.1 0-0.7 0.1-1.3 0.1-0.6 0-1.1 0.1-1.2 0.1-0.1 0-0.2 0-0.3 0zm14.5-1.9c0 0 0 0 0.1-0.1 0 0 0.1 0 0.1 0 0 0.1-0.1 0.1-0.1 0zM27.8 11.6c-3.1-0.1-6.2-0.2-7.3-0.4-0.2 0-0.5-0.1-0.6 0-0.1 0-0.2 0-0.1 0 0 0 0 0-0.1 0-0.2 0-0.6-0.1-0.7-0.1 0-0.1 1 0 1.1 0 0 0 0.2 0 0.4 0 0.2 0 0.7 0 1.2 0.1 1.9 0.2 2.7 0.2 6.3 0.3 2.3 0.1 4.9 0 6.5-0.1 0.4 0 0.8-0.1 0.8-0.1 0.1 0.1-1.3 0.3-3.3 0.4-0.7 0-1.4 0.1-1.6 0-0.2 0-1.3 0-2.4-0.1zm23.9 0c-1.6-0.1-2.9-0.2-3.1-0.3-0.4-0.3-0.3-1.1 0.2-1.7l0.2-0.2-0.1 0.3c-0.2 0.4-0.2 1-0.1 1.2 0.2 0.3 0.3 0.3 1.2 0.4 1.6 0.1 3.4 0.2 5.9 0.1 1.2 0 2.6-0.1 3.7-0.1 0.6 0 1.4-0.1 1.7-0.1 1.1-0.1 2.4-0.2 3.3-0.3 0.6-0.1 1.1-0.1 1.1-0.1 0 0-0.2 0.1-0.5 0.1-0.3 0-0.5 0.1-0.8 0.2-0.1 0-0.2 0-0.1 0 0.1-0.1-0.7 0-1.1 0.1-1.1 0.2-9.2 0.5-11.6 0.4zm-33.1-0.7-0.1 0 0.1 0c0.1 0 0.2 0 0.2 0 0 0.1 0 0.1-0.2 0zM68.6 7.4C68.7 7.4 68.6 7.4 68.3 7.3 66.7 7.3 65.1 7 63 6.4 62.1 6.1 62 6 61.9 5.8 61.9 5.7 61.8 5.6 61.7 5.5 61.4 5.3 61.4 5 61.7 4.7l0.2-0.2 0 0.2c0 0.3 0 0.5 0.3 0.7 0.1 0.1 0.1 0.2 0.1 0.2 0 0.1 0.2 0.2 0.8 0.5 1.5 0.5 2.9 0.9 4 1 0.7 0.1 0.8 0.1 1.8 0.1l1 0-0.4 0.1c-0.2 0-0.5 0.1-0.6 0.1-0.1 0-0.3 0.1-0.3 0.1-0.1 0-0.1 0 0.1 0zM14.9 7.3c-0.1 0-0.3-0.1-0.3-0.1 0 0 0.3 0 0.7 0 0.4 0 1.1 0 1.4-0.1 0.4 0 0.8-0.1 1-0.1 0.2 0 0.6-0.1 1-0.2 0.6-0.1 2.4-0.7 2.5-0.7 0 0 0 0 0 0-0.1 0.1-1.4 0.5-2.3 0.7-1 0.3-1.6 0.3-2.5 0.4-1.2 0.1-1.4 0.1-1.6 0.1zM26.7 6c0.3-0.1 0.7-0.2 0.9-0.2 0.2-0.1 0.4-0.1 0.4-0.1 0 0-1.5 0.5-1.6 0.5-0.1 0 0.1-0.1 0.4-0.1zm-5 0c0 0 0.1-0.1 0.1 0 0 0 0 0-0.1 0.1-0.1 0-0.1 0 0 0zm5.4-1.1c0.5-0.8 1.1-1.9 2.6-4.1 2.5-3.9 3.5-6.1 3.9-8.7 0.1-0.9 0.1-2.6 0-3.3-0.4-2.2-1.6-4-4.2-6.4-0.7-0.6-2-1.8-2.8-2.4-0.8-0.6-2.7-2.3-2.8-2.4 0 0 0-0.1 0-0.1 0 0 0-0.1 0-0.1-0.2-0.2 0.4 0.1 0.7 0.4 0.5 0.4 1.9 1.6 2.3 1.9 4.5 3.6 6.4 6 6.9 8.6 0.1 0.5 0.1 0.7 0.1 1.8 0 1.1 0 1.3-0.1 2-0.4 2.4-1.4 4.4-3.9 8.3C29.4 1.4 28.7 2.4 28.5 2.9 28.2 3.3 27.7 4.1 27.4 4.6 27.1 5 26.8 5.5 26.7 5.6 26.7 5.7 26.8 5.3 27.1 4.8Zm1 0.7c0 0 0.1-0.1 0.2-0.1 0.1 0 0.1 0 0.1 0 0 0-0.1 0.1-0.2 0.1-0.1 0-0.1 0-0.1 0zm0.4-0.2c0 0 0.1-0.1 0.1-0.1 0 0 0 0 0 0.1 0 0-0.1 0.1-0.1 0.1 0 0 0 0 0-0.1zm9.6-5.8c0 0 0.1-0.1 0.1-0.1 0 0 0 0 0 0.1 0 0-0.1 0.1-0.1 0.1 0 0 0 0 0-0.1zm0.6-0.3c0 0 0.1-0.1 0.1-0.1 0 0 0 0 0 0.1 0 0-0.1 0.1-0.1 0.1 0 0 0 0 0-0.1zm2.3-0.9c0 0 1.7-0.6 2.7-0.9 1.8-0.5 5.7-1.5 5.9-1.4 0 0-0.2 0.1-0.5 0.1-3.2 0.7-5.6 1.4-7.5 2-0.6 0.2-0.6 0.2-0.6 0.2zm36.7-3.1c0 0-0.1-0.5-0.2-1.1-0.7-7.3-3.5-14.1-8.1-19.7-0.8-1-1.6-1.9-2.5-2.7-2.2-2.5-4.7-4.2-7.4-5.8-0.2-0.1-0.6-0.3-1-0.5-6.9-3.1-12.1-4.7-20.1-4.1-3.6 0.4-7 1.2-10 2.5-1.1 0.5-1.2 0.5-1 0.4 0.5-0.3 2.9-1.2 4.2-1.6 2.6-0.8 4.5-1.2 7-1.4 0.7 0 1.3-0.1 1.4-0.1 0.1 0 3.7 0 4.3 0 1.3 0.1 1.7 0.1 2.6 0.2 5 0.9 9.1 2.5 13 4.4 0 0 0.4 0.2 0.8 0.4 1.5 0.9 3.3 2.2 4.6 3.3 0.6 0.5 1.4 1.4 1.9 2 1.4 1.3 3.2 3.5 4.6 5.6 3.4 5.1 5.4 10.9 6 16.9 0 0.5 0.1 1 0.1 1.1 0 0.1 0 0.1 1.1 0.1 1.1 0 1.4 0 1.1 0.1-0.1 0-0.7 0.1-1.3 0.1-1 0-1.2 0-1.2 0zM4.7-4.8c-0.1 0-0.3-0.1-0.4-1.4-0.3-2.8-0.5-4.8-0.9-7.4-0.1-0.7 0-0.9 0-0.9 0-0.1 0.1-0.1 0.1-0.2 0.5 3.3 1 7.6 1.1 9.9zm0.2-9.8c-0.1-0.1 0.9-2.9 1.6-4.3 1.3-2.9 3.2-5.9 5.2-8.4 0.7-0.9 1.6-1.9 2.1-2.3 0.2-0.2 0.2-0.2-0.2 0.2-0.9 1-2.4 2.7-2.8 3.4-0.1 0.1-0.3 0.4-0.4 0.5-0.1 0.2-0.5 0.7-0.8 1.2-1.9 2.9-3.2 5.8-4.2 8.9-0.2 0.6-0.4 0.9-0.5 0.8zM14-30c0 0 0-0.1 0.1-0.1 0.1-0.1 0.1-0.1 0 0-0.1 0.1-0.1 0.1-0.1 0.1zm0.9-0.8c0.2-0.2 0.4-0.4 0.4-0.4 0 0-0.1 0.2-0.3 0.4-0.2 0.2-0.4 0.4-0.4 0.4 0 0 0.1-0.2 0.3-0.4zm9.3-3.3c0 0 0-0.1 0.1-0.1 0.1 0 0.1 0 0.1 0 0 0 0 0.1-0.1 0.1-0.1 0-0.1 0-0.1 0zm0.5-0.3c0 0 0.1-0.1 0.3-0.2 0.1-0.1 0.3-0.1 0.3-0.1 0 0-0.1 0.1-0.3 0.2-0.1 0.1-0.3 0.1-0.3 0.1zm1.3-0.7c0.1-0.1 0.2-0.1 0.2-0.1 0 0 0 0-0.1 0.1-0.1 0.1-0.2 0.1-0.2 0.1 0 0 0 0 0.1-0.1zm1-0.5c0.1-0.1 0.2-0.1 0.2-0.1 0 0 0 0-0.1 0.1-0.1 0.1-0.2 0.1-0.2 0.1 0 0 0 0 0.1-0.1z" class="d"/></g></svg>