<?xml version="1.0" encoding="UTF-8" standalone="no"?>
<svg
   xmlns:dc="http://purl.org/dc/elements/1.1/"
   xmlns:cc="http://creativecommons.org/ns#"
   xmlns:rdf="http://www.w3.org/1999/02/22-rdf-syntax-ns#"
   xmlns:svg="http://www.w3.org/2000/svg"
   xmlns="http://www.w3.org/2000/svg"
   width="174"
   height="35"
   viewBox="0 0 174 35"
   version="1.1"
   id="svg1">
  <title
     id="title">Logotip del Banc del Temps del Berguedà</title>
  <defs
     id="defs" />
  <metadata
     id="metadata">
    <rdf:RDF>
      <cc:Work
         rdf:about="">
        <dc:format>image/svg+xml</dc:format>
        <dc:type
           rdf:resource="http://purl.org/dc/dcmitype/StillImage" />
        <dc:title>Logotip del Banc del Temps del Berguedà</dc:title>
        <dc:date>23.10.2017</dc:date>
        <dc:rights>
          <cc:Agent>
            <dc:title>Banc del Temps del Berguedà</dc:title>
          </cc:Agent>
        </dc:rights>
        <dc:language>català</dc:language>
        <dc:subject>
          <rdf:Bag>
            <rdf:li>banc de temps</rdf:li>
            <rdf:li>berguedà</rdf:li>
          </rdf:Bag>
        </dc:subject>
        <dc:coverage>mundial</dc:coverage>
        <dc:description>Positiu del logotip. Ús preferent sobre fons blanc.</dc:description>
        <cc:license
           rdf:resource="http://creativecommons.org/licenses/by-nc-sa/4.0/" />
      </cc:Work>
      <cc:License
         rdf:about="http://creativecommons.org/licenses/by-nc-sa/4.0/">
        <cc:permits
           rdf:resource="http://creativecommons.org/ns#Reproduction" />
        <cc:permits
           rdf:resource="http://creativecommons.org/ns#Distribution" />
        <cc:requires
           rdf:resource="http://creativecommons.org/ns#Notice" />
        <cc:requires
           rdf:resource="http://creativecommons.org/ns#Attribution" />
        <cc:prohibits
           rdf:resource="http://creativecommons.org/ns#CommercialUse" />
        <cc:permits
           rdf:resource="http://creativecommons.org/ns#DerivativeWorks" />
        <cc:requires
           rdf:resource="http://creativecommons.org/ns#ShareAlike" />
      </cc:License>
    </rdf:RDF>
  </metadata>
    <path d="M13.365 32.894c-.694-.152-1.465-.354-2.934-.767-1.511-.425-2.597-.71-4.319-1.134-1.09-.268-2.087-.517-2.217-.554-.444-.123-1.643-.465-1.762-.502l-.12-.036-.006-2.993L2 23.916l.286.015.922.042c1.457.062 3.687.17 4.103.199a124.337 124.337 0 0 0 4.832.182c.148.002.214.008.254.03.04.026.106.041.123.228-.01.103-.012.05-.182.29-.096.16-.119.161-.252.245-1 .38-2.155.631-2.912.631-.2 0-.147.043.081.065.106.01.259.034.34.054.08.02.307.056.504.08.197.023.4.055.451.07.096.027.729.103 1.407.17.212.02.505.05.651.065 2.017.137 5.839.302 6.075.479l.006.025.076.167c.187.293.231.535.12.655-.147.157-.549.217-1.79.265-1.258.05-4.658-.061-5.562-.18-.361-.048-.472-.056-.402-.027.035.015.149.044.253.066.41.114.747.197 1.158.299.357.088.65.156 1.022.243.061.026.429.11.757.172.548.123 1.042.242 1.577.371.493.097 1.037.248 1.473.365.39.097.571.154.58.18a1.1 1.1 0 0 0 .06.134c.124.235.16.37.143.521-.013.11-.035.164-.087.212-.081.076-.327.155-.41.131a6.65 6.65 0 0 0-.562-.043c-.524-.027-.61-.035-1.487-.143-1.376-.17-3.198-.478-4.336-.733a11.256 11.256 0 0 0-.493-.105c-.06 0 .085.076.276.144.197.078.41.157.597.228.314.12.576.192.893.291.358.104.774.204 1.114.293.458.112.842.21 1.286.317.29.083.589.158.878.232.307.084.35.104.376.165.142.34.176.416.196.43.035.022-.017.26-.074.336a.5.5 0 0 1-.182.119c-.11.043-.168.05-.345.035-.525-.043-1.763-.243-2.705-.438-.473-.097-.538-.1-.308-.012.188.077.396.157.557.22.574.215.784.301.792.325.026.01.037.023.052.033.007.067.145.43.17.446.027.018-.026.234-.082.339-.03.057-.285.164-.382.16a8.097 8.097 0 0 1-.523-.103zm1.053-7.851c.092-.086.214-.258.374-.526.222-.373.537-.87 1.25-1.97 1.218-1.882 1.717-2.99 1.907-4.23.066-.438.066-1.25 0-1.607-.198-1.056-.768-1.934-2.034-3.13a30.456 30.456 0 0 0-1.346-1.176 44.728 44.728 0 0 1-1.353-1.155c-.011-.017-.006-.037.013-.043.024-.008.02-.025-.013-.061-.044-.05-.041-.05.108-.05.163 0 .685-.136 2.27-.589 2.055-.587 2.722-.826 4.143-1.483.917-.424 1.402-.631 1.822-.778.188-.066.388-.14.445-.164a18.22 18.22 0 0 1 1.026-.32c0 .002-.135.273-.3.6-.92 1.823-1.536 3.648-1.773 5.243-.07.463-.115 1.612-.077 1.92.102.825.346 1.406.83 1.97.278.333.483.5 1.001.793.423.251.713.407 1.089.614a54.47 54.47 0 0 1 1.574.936c.134.084.264.16.288.168a.31.31 0 0 1 .098.09c.03.042.1.09.154.108l.098.033-.13.05a7.719 7.719 0 0 1-.648.168c-.819.184-.965.22-1.5.362-1.997.531-3.209.98-4.335 1.604-.535.297-.849.496-1.624 1.031-1.016.702-1.396.94-1.938 1.21-.526.261-1.097.462-1.41.495l-.146.015z" fill="#ae5570"/>
  <path d="M29.93 32.954c-.098-.053-.144-.18-.144-.4a.63.63 0 0 1 .09-.365c.05-.097.1-.177.113-.177.011 0 .084-.029.161-.064.078-.035.26-.107.406-.16.146-.054.302-.114.345-.134.044-.02.188-.073.319-.12.131-.045.288-.106.347-.135a.552.552 0 0 1 .144-.051c.02 0 .03-.006.022-.013a4.201 4.201 0 0 0-.503.079c-1.448.274-2.155.391-2.972.493-.218.027-.267.026-.353-.01-.231-.097-.237-.508-.011-.836.091-.133.15-.162.498-.244a2.08 2.08 0 0 0 .279-.079c.015-.01.194-.058.398-.105.205-.047.396-.096.425-.109.03-.012.25-.066.491-.118a6.22 6.22 0 0 0 .492-.119c.029-.013.242-.068.473-.12.232-.053.447-.107.478-.12.032-.013.213-.067.403-.12.19-.051.38-.11.425-.13.043-.02.127-.05.185-.068a2.58 2.58 0 0 0 .24-.092c.072-.033.216-.087.318-.12.102-.033.2-.071.216-.084a1.77 1.77 0 0 1 .24-.101c.114-.043.187-.079.162-.08-.048 0-.648.123-1.273.264-.696.156-3.02.532-4.098.663l-.425.055c-.319.045-.76.08-1.022.08a3.05 3.05 0 0 0-.385.026c-.155.027-.335-.007-.397-.078-.072-.079-.098-.324-.05-.483.04-.138.134-.306.224-.402.033-.036.203-.093.534-.179.267-.069.557-.146.645-.172.087-.026.303-.08.478-.121a52.813 52.813 0 0 1 1.805-.419c.249-.055.47-.108.492-.116.057-.023.125-.038.557-.128a4.46 4.46 0 0 0 .438-.105c.03-.015.334-.09.677-.17.839-.196 1.061-.253 1.155-.299.074-.036.063-.037-.159-.023a3.91 3.91 0 0 0-.372.04c-.232.043-1.544.111-3.04.16-2.034.065-3.926.005-4.116-.13-.092-.066-.132-.155-.131-.295 0-.165.092-.356.3-.617.028-.036.135-.057.498-.1.254-.03.546-.065.648-.08.102-.015.413-.044.69-.066.278-.022.612-.051.744-.066.131-.015.633-.044 1.115-.066.482-.023.978-.051 1.102-.066.124-.015.548-.046.942-.07.395-.022.813-.051.93-.064.64-.067.99-.111 1.062-.133a5.43 5.43 0 0 1 .478-.067c.219-.023.464-.06.544-.08.08-.02.26-.049.398-.067a4.02 4.02 0 0 0 .385-.066l.133-.035-.228-.002c-.777-.005-1.54-.149-2.573-.483-.45-.146-.518-.179-.546-.266a.469.469 0 0 0-.108-.143c-.117-.11-.123-.242-.018-.381.114-.151.136-.16.366-.157.459.007 2.122-.062 4.714-.195a217.31 217.31 0 0 1 3.292-.152c.416-.015 1.002-.04 1.301-.056.741-.037.825-.036.807.01-.007.02-.001.045.015.055.02.013.028.886.028 2.904v2.886l-.126.06c-.07.031-.264.095-.432.14l-.478.13c-.095.028-.441.117-.77.2-.328.082-1.051.27-1.606.416-1.236.327-1.73.452-2.536.645-.748.179-.922.226-2.695.732-1.501.429-2.28.634-2.965.781-.492.106-.536.11-.636.055zM39.527 19.9c-.015-.02-.048-.263-.073-.54a17.722 17.722 0 0 0-3.941-9.649 15.86 15.86 0 0 0-1.208-1.32c-.782-.886-1.74-1.638-2.622-2.221-2.489-1.55-5.633-2.552-8.133-2.828-.654-.067-2.541-.067-3.196 0-2.964.307-5.559 1.228-8.027 2.848-1.579 1.037-3.063 2.438-4.259 4.018-.235.311-.79 1.154-1.074 1.632a17.43 17.43 0 0 0-1.597 3.505c-.018.088-.052.065.621.177-.534 1.173-1.13 2.336-1.673 3.4.015 0-.459.935-.49.966-.014.015-.03.008-.04-.018l-.543-4.844c.665.12.601.135.625.05l.115-.354c.872-2.701 2.338-5.091 4.395-7.17.136-.137.275-.273.416-.408 2.926-2.79 6.783-4.592 10.885-5.082.904-.108 1.162-.122 2.39-.122 1.228 0 1.486.013 2.39.122 1.952.233 3.893.774 5.67 1.58 3.203 1.496 6.135 4.005 8.01 6.966 1.055 1.694 1.767 3.357 2.21 5.166.364 1.326.481 2.753.522 4.067-.273.086-.555.069-.773.081-.467.013-.577.008-.6-.023z" fill="#609da1"/>
  <path style="line-height:5.36574984px;-inkscape-font-specification:'Open Sans Bold'" d="M48.344 2.227h3.762q2.57 0 3.728.736Q57 3.69 57 5.286q0 1.083-.513 1.777-.504.694-1.347.835v.082q1.149.257 1.653.96.513.702.513 1.868 0 1.653-1.199 2.579-1.19.926-3.24.926h-4.523zm2.563 4.786h1.488q1.042 0 1.505-.322.471-.322.471-1.066 0-.695-.513-.993-.504-.306-1.603-.306h-1.348zm0 2.034v3.15h1.67q1.058 0 1.562-.405.505-.405.505-1.24 0-1.505-2.15-1.505zm15.43 5.266l-.876-2.877h-4.406l-.877 2.877h-2.76l4.265-12.136h3.133l4.282 12.136zM64.85 9.287q-1.215-3.91-1.372-4.423-.149-.513-.215-.81-.273 1.058-1.563 5.233zm15.702 5.026h-3.257L72.037 5.17h-.074q.157 2.422.157 3.455v5.688h-2.29V2.227h3.232l5.25 9.052h.058q-.124-2.356-.124-3.331V2.227h2.306zm7.386-10.127q-1.446 0-2.24 1.091-.793 1.083-.793 3.026 0 4.043 3.033 4.043 1.274 0 3.084-.637v2.15q-1.488.62-3.323.62-2.637 0-4.035-1.596-1.397-1.604-1.397-4.597 0-1.884.687-3.298.686-1.422 1.967-2.174 1.29-.76 3.017-.76 1.761 0 3.539.85l-.827 2.084q-.678-.322-1.364-.562-.686-.24-1.348-.24zm19.292 3.968q0 2.985-1.704 4.572-1.694 1.587-4.902 1.587h-3.423V2.227h3.795q2.96 0 4.596 1.562 1.637 1.563 1.637 4.365zm-2.663.066q0-3.893-3.439-3.893h-1.364v7.87h1.1q3.703 0 3.703-3.977zm11.347 6.093h-6.961V2.227h6.96v2.1h-4.397V6.98h4.092v2.1h-4.092v3.117h4.398zm10.808 0h-2.562V4.36h-3.282V2.227h9.126V4.36h-3.282zm11.338 0h-6.96V2.227h6.96v2.1h-4.398V6.98h4.093v2.1h-4.093v3.117h4.398zm6.866 0l-2.91-9.482h-.074q.157 2.893.157 3.86v5.622h-2.29V2.227h3.488l2.86 9.242h.05l3.034-9.242h3.489v12.086h-2.39v-5.72q0-.406.009-.935.016-.529.116-2.81h-.075l-3.116 9.465zm12.636-6.399h.843q1.182 0 1.77-.463.586-.47.586-1.364 0-.9-.496-1.33-.488-.43-1.537-.43h-1.166zm5.787-1.917q0 1.95-1.224 2.984-1.215 1.033-3.464 1.033h-1.1v4.3H155V2.226h3.86q2.2 0 3.34.95 1.15.943 1.15 2.82zm8.651 4.96q0 1.637-1.182 2.579-1.174.942-3.274.942-1.934 0-3.422-.727v-2.38q1.223.545 2.066.768.852.223 1.555.223.843 0 1.29-.322.454-.323.454-.96 0-.355-.199-.628-.198-.28-.587-.537-.38-.256-1.562-.818-1.108-.521-1.662-1-.554-.48-.884-1.117-.33-.636-.33-1.488 0-1.604 1.082-2.521 1.091-.918 3.01-.918.942 0 1.793.223.86.223 1.794.629l-.827 1.992q-.967-.397-1.603-.554-.629-.157-1.24-.157-.728 0-1.116.339-.389.339-.389.885 0 .339.157.595.157.248.496.488.347.231 1.629.843 1.694.81 2.323 1.628.628.81.628 1.993zM58.372 26.413q0 2.985-1.703 4.572-1.695 1.587-4.902 1.587h-3.423V20.486h3.795q2.96 0 4.596 1.562 1.637 1.563 1.637 4.365zm-2.662.067q0-3.894-3.439-3.894h-1.364v7.87h1.1q3.703 0 3.703-3.976zm11.346 6.092h-6.96V20.486h6.96v2.1h-4.398v2.653h4.093v2.1h-4.093v3.117h4.398zm1.749 0V20.486h2.563v9.97h4.902v2.116zm13.173-12.086h3.761q2.572 0 3.729.736 1.166.727 1.166 2.323 0 1.083-.513 1.777-.504.695-1.348.835v.083q1.15.256 1.654.959.512.702.512 1.868 0 1.653-1.198 2.58-1.19.925-3.241.925h-4.522zm2.563 4.787h1.488q1.041 0 1.504-.323.472-.322.472-1.066 0-.695-.513-.992-.504-.306-1.604-.306h-1.347zm0 2.033v3.15h1.67q1.058 0 1.562-.405t.504-1.24q0-1.505-2.149-1.505zm14.992 5.266h-6.961V20.486h6.96v2.1h-4.397v2.653h4.092v2.1h-4.092v3.117h4.398zm4.311-6.721h.826q1.216 0 1.794-.405.58-.405.58-1.273 0-.86-.596-1.223-.587-.364-1.827-.364h-.777zm0 2.084v4.637h-2.563V20.486h3.522q2.463 0 3.646.901 1.182.893 1.182 2.72 0 1.066-.587 1.901-.587.827-1.662 1.298 2.728 4.076 3.555 5.266h-2.844l-2.885-4.637zm12.421-2.15h4.795v6.266q-1.166.38-2.2.53-1.025.156-2.1.156-2.736 0-4.182-1.603-1.439-1.612-1.439-4.622 0-2.926 1.67-4.563 1.678-1.637 4.646-1.637 1.86 0 3.588.744l-.851 2.05q-1.323-.661-2.753-.661-1.662 0-2.662 1.116t-1 3.001q0 1.968.801 3.01.81 1.033 2.348 1.033.802 0 1.629-.166v-2.521h-2.29zm16.736-5.299v7.82q0 1.34-.603 2.348-.596 1.009-1.728 1.546-1.133.538-2.679.538-2.331 0-3.62-1.19-1.29-1.2-1.29-3.275v-7.787h2.554v7.399q0 1.397.562 2.05.562.653 1.86.653 1.257 0 1.82-.653.57-.661.57-2.067v-7.382zm9.139 12.086h-6.96V20.486h6.96v2.1h-4.398v2.653h4.092v2.1h-4.092v3.117h4.398zm11.776-6.159q0 2.985-1.703 4.572-1.695 1.587-4.902 1.587h-3.423V20.486h3.795q2.96 0 4.596 1.562 1.637 1.563 1.637 4.365zm-2.662.067q0-3.894-3.439-3.894h-1.364v7.87h1.1q3.703 0 3.703-3.976zm11.785 6.092l-.877-2.877h-4.406l-.876 2.877h-2.761l4.265-12.136h3.133l4.283 12.136zm-1.488-5.026q-1.216-3.91-1.373-4.423-.149-.512-.215-.81-.273 1.058-1.562 5.233zm-1.538-8.027q-.52-.364-1.53-1.174-1.008-.819-1.57-1.364v-.174h2.827q.52.835 1.943 2.489v.223z" font-weight="700" font-size="5.168" font-family="Open Sans" letter-spacing="-.239" word-spacing=".239" fill="#0d0d0d"/>
  <path d="M13.365 32.894c-.694-.152-1.465-.354-2.934-.767-1.511-.425-2.597-.71-4.319-1.134-1.09-.268-2.087-.517-2.217-.554-.444-.124-1.643-.465-1.762-.502l-.12-.036-.006-2.971c-.004-1.93.003-2.957.02-2.931.016.025.026 1.083.026 2.868 0 2.47.005 2.836.04 2.886.048.068.158.105 1.075.366.654.187 1.174.318 4.036 1.026.592.146 1.136.282 1.209.303.073.02.401.111.73.2.328.089.914.25 1.3.359a213.244 213.244 0 0 0 1.143.318c.373.11 1.6.418 2.002.502.188.039.373.084.411.098.065.026.066.03.016.05-.087.035-.165.026-.65-.08zm16.539.066c-.097-.053-.143-.18-.143-.4 0-.16.013-.212.093-.37.107-.212.13-.18.067.096-.038.17-.039.203-.003.326.074.255.206.324.512.27.114-.02.229-.046.255-.056.027-.01.2-.052.385-.093.587-.13 1.132-.264 1.179-.29.025-.016.132-.046.239-.07a1.08 1.08 0 0 0 .22-.063c.015-.01.116-.04.226-.065s.219-.055.243-.068a1.52 1.52 0 0 1 .212-.065c.093-.023.247-.065.341-.094.46-.139.636-.188.77-.216a.784.784 0 0 0 .173-.05c.015-.013.122-.046.239-.076l.425-.108c.117-.03.29-.077.385-.106.095-.028.273-.072.395-.096.123-.025.268-.06.322-.08.055-.02.23-.06.388-.09.159-.031.308-.067.33-.08.023-.012.113-.036.2-.053.086-.017.181-.04.21-.054.03-.012.131-.041.226-.063.357-.083.52-.125.57-.15.03-.012.126-.038.213-.054a.908.908 0 0 0 .186-.051c.015-.01.104-.035.2-.053a.887.887 0 0 0 .198-.053c.015-.01.11-.036.213-.054a2.07 2.07 0 0 0 .279-.068 3.15 3.15 0 0 1 .305-.077c.117-.023.26-.06.319-.08.058-.02.225-.062.371-.092s.29-.067.319-.082a2.78 2.78 0 0 1 .319-.09c.146-.037.372-.096.502-.133.13-.037.225-.055.21-.04-.024.025-.148.061-.832.25-.124.033-.494.129-.823.212-.329.082-1.051.27-1.606.417a94.8 94.8 0 0 1-2.536.644c-.749.18-.922.226-2.695.733-1.502.428-2.28.633-2.965.78-.492.106-.536.11-.636.056zM15.7 31.92a33.804 33.804 0 0 1-1.792-.273c-1.05-.194-1.53-.292-1.567-.32-.014-.01-.09-.04-.167-.065a.485.485 0 0 1-.133-.054c.018-.018 1.56.258 1.854.33.05.013.182.037.292.055.11.017.295.049.411.071a14.61 14.61 0 0 0 1.195.166c.312.034.37.05.292.082-.053.023-.213.026-.385.008zm12.167-.023c-.231-.1-.211-.587.036-.876.038-.044.059-.062.047-.04a.304.304 0 0 0-.025.067 5.035 5.035 0 0 1-.046.186c-.067.261-.004.493.154.559.138.057.244.053.824-.031l.2-.026a9.8 9.8 0 0 0 .424-.066c.183-.032.376-.061.43-.065a.504.504 0 0 0 .122-.023 5.79 5.79 0 0 1 .46-.084c.24-.038.471-.08.515-.095.095-.03 1.107-.213 1.12-.201.018.02-.334.125-.456.137a9.863 9.863 0 0 0-.545.092 43.961 43.961 0 0 1-2.869.477c-.28.036-.284.036-.391-.01zm3.632-.473c0-.008.039-.026.086-.042.047-.016.074-.018.06-.006-.03.029-.146.067-.146.048zm-13.864-1.066c-.01-.01-.249-.029-.531-.043a17.468 17.468 0 0 1-.74-.051c-1.783-.205-3.605-.497-4.972-.799-.333-.073-.617-.125-.632-.116-.015.01-.042.005-.06-.007a1.884 1.884 0 0 0-.238-.1c-.113-.04-.201-.079-.195-.085a.925.925 0 0 1 .22.03c.115.023.292.054.394.068.102.012.3.05.438.081.8.18 1.187.254 2.204.426l.6.102c.073.013.289.043.477.067.19.023.391.054.45.07.094.022.78.115 1.102.147.065.008.298.032.517.055.356.039.72.06 1.19.072.15.002.152.005.075.036-.103.042-.277.07-.3.047zm8.496-.018c-.133-.036-.179-.095-.207-.27-.037-.224.061-.502.244-.693.053-.055.053-.055 0 .051-.139.283-.133.631.013.75.092.075.285.118.375.083.038-.015.196-.023.352-.02.156.002.3-.005.319-.018a.636.636 0 0 1 .195-.029c.257-.012.457-.032.798-.078.324-.044.42-.056.61-.073.059-.005.143-.018.186-.027.086-.018.806-.123.916-.133a17.854 17.854 0 0 1 .73-.122c.821-.127 1.944-.335 2.165-.402.05-.015.29-.067.53-.115.242-.047.46-.096.485-.107.027-.013.047-.01.047.008 0 .037-.136.081-.399.127-.124.023-.524.106-.89.186-1.004.222-3.127.574-4.38.726-.132.015-.323.04-.425.054-.102.012-.24.031-.306.04a16.18 16.18 0 0 1-.637.04c-.285.013-.541.03-.57.037a.374.374 0 0 1-.151-.015zm7.067-.909c0-.005.019-.018.042-.026.023-.01.034-.005.025.01-.016.025-.067.037-.067.015zm-18.095-1.56c-1.53-.03-3.05-.107-3.587-.185a1.352 1.352 0 0 0-.297-.017c-.046.007-.077.001-.069-.01.008-.013-.013-.02-.048-.016-.084.01-.311-.031-.328-.059-.016-.025.503-.01.544.016.015.01.096.015.18.015.084-.001.35.015.591.038.914.083 1.333.104 3.054.153 1.1.031 2.406.001 3.159-.072a4.15 4.15 0 0 1 .394-.028c.059.059-.615.13-1.628.173-.35.015-.703.025-.784.02-.08-.003-.612-.015-1.181-.025zm11.67-.001c-.79-.029-1.433-.093-1.514-.151-.207-.15-.16-.516.104-.827l.079-.092-.071.145c-.09.183-.114.47-.048.571.08.123.145.143.6.185.767.071 1.678.093 2.894.07a102.32 102.32 0 0 0 1.222-.027c.036-.003.299-.013.584-.02.285-.008.667-.026.85-.041.182-.015.409-.032.504-.037.347-.02.582-.039 1.1-.09.29-.03.532-.05.536-.045.005.005-.096.03-.223.056a1.476 1.476 0 0 0-.258.068.35.35 0 0 1-.12.037c-.072.013-.08.01-.04-.01.063-.031-.345-.013-.557.027-.533.096-4.472.222-5.642.18zm-16.17-.34l-.067-.02.071-.003c.04-.001.08.01.088.023.019.03.001.03-.093 0zm24.414-1.726c.057-.015.014-.02-.148-.023-.797-.01-1.543-.151-2.573-.485-.451-.145-.518-.178-.546-.266a.47.47 0 0 0-.108-.143c-.12-.113-.123-.245-.01-.395l.08-.105-.014.112c-.016.126.022.22.13.321.038.035.07.078.07.095 0 .062.097.115.41.224.72.251 1.413.421 1.966.481.363.04.39.042.889.066l.465.023-.186.032a4.227 4.227 0 0 0-.292.06.721.721 0 0 1-.16.027c-.034-.002-.025-.01.027-.023zM8.8 25.775a.521.521 0 0 1-.131-.037 2.136 2.136 0 0 1 .356-.015c.203 0 .519-.017.701-.038.183-.02.41-.045.504-.054.095-.01.316-.052.492-.096.29-.073 1.158-.33 1.221-.363.018-.01.018-.005 0 .012-.04.042-.663.238-1.128.355a6.52 6.52 0 0 1-1.235.208c-.582.047-.66.05-.78.026zm5.772-.673c.131-.033.321-.086.422-.117a.777.777 0 0 1 .195-.047c.023.023-.711.23-.802.226-.03-.002.053-.03.185-.062zm-2.437.01c.018-.018.04-.027.048-.018.008.008-.007.023-.033.033-.038.015-.04.01-.015-.015zm2.632-.556c.246-.411.56-.906 1.274-2.009 1.218-1.881 1.717-2.99 1.907-4.23.066-.437.066-1.248 0-1.606-.198-1.057-.768-1.935-2.034-3.13a30.455 30.455 0 0 0-1.346-1.177 44.728 44.728 0 0 1-1.353-1.155c-.011-.017-.006-.037.013-.043.023-.008.019-.026-.015-.065-.087-.097.2.067.363.207.242.209.927.786 1.1.927 2.184 1.78 3.113 2.934 3.392 4.21.053.246.06.349.06.889-.002.54-.01.655-.071.996-.21 1.16-.668 2.135-1.915 4.075l-.733 1.142c-.14.22-.373.593-.516.831a6.513 6.513 0 0 1-.324.505c-.035.04.054-.126.198-.368zm.482.351a.543.543 0 0 1 .106-.042c.046-.013.054-.01.027.007a.542.542 0 0 1-.107.043c-.046.012-.054.01-.026-.008zm.212-.084a.147.147 0 0 1 .067-.026c.014 0 .008.013-.014.026a.147.147 0 0 1-.066.026c-.015 0-.009-.013.013-.026zm4.7-2.815a.147.147 0 0 1 .066-.026c.015 0 .01.013-.013.026a.147.147 0 0 1-.066.026c-.015 0-.009-.013.013-.026zm.292-.133a.147.147 0 0 1 .067-.025c.014 0 .008.012-.014.025a.147.147 0 0 1-.066.026c-.015 0-.009-.012.013-.026zm1.142-.435c0-.018.83-.288 1.301-.425.884-.257 2.803-.724 2.875-.699.018.005-.087.038-.233.07-1.559.35-2.752.667-3.65.97-.296.101-.293.1-.293.083zm17.907-1.533c-.016-.02-.049-.263-.074-.54a17.722 17.722 0 0 0-3.94-9.649 15.86 15.86 0 0 0-1.209-1.32c-1.075-1.2-2.277-2.064-3.618-2.809a6.875 6.875 0 0 1-.508-.25c-3.384-1.52-5.908-2.306-9.824-1.99-1.763.183-3.401.584-4.894 1.2-.558.23-.6.246-.5.188.236-.136 1.413-.575 2.072-.772 1.258-.393 2.205-.6 3.43-.705.358-.023.658-.025.674-.033.032-.02 1.802-.023 2.104-.002.651.041.844.06 1.258.12 2.442.42 4.438 1.21 6.366 2.15.022 0 .194.092.383.206a18.6 18.6 0 0 1 2.229 1.588c.275.244.693.688.935.958.684.627 1.586 1.716 2.267 2.735a17.774 17.774 0 0 1 2.931 8.266c.023.256.048.492.055.525.013.06.014.06.55.06.515 0 .687.02.546.064a7.05 7.05 0 0 1-.634.034c-.466.013-.576.008-.6-.023zM3.816 19.87c-.045.018-.128-.056-.193-.69-.166-1.368-.268-2.348-.416-3.624-.039-.332.001-.441.001-.441a.28.28 0 0 1 .065-.09c.251 1.628.502 3.708.543 4.845zm.082-4.793c-.037-.06.457-1.433.765-2.123a18.272 18.272 0 0 1 2.534-4.086c.358-.432.793-.915 1.008-1.118.114-.11.088-.076-.074.092-.458.477-1.184 1.34-1.387 1.647a15.3 15.3 0 0 0-.584.863c-.913 1.434-1.568 2.824-2.04 4.326-.097.31-.182.463-.222.4zm4.475-7.523a.16.16 0 0 1 .046-.047c.042-.033.043-.032.01.01-.034.044-.056.058-.056.037zm.425-.402a1.81 1.81 0 0 1 .184-.172c.007 0-.064.077-.158.172a1.827 1.827 0 0 1-.184.173 1.36 1.36 0 0 1 .158-.173zm4.567-1.618c0-.007.024-.026.053-.042.029-.015.053-.022.053-.015 0 .008-.024.026-.053.042-.03.015-.053.023-.053.015zm.239-.134c0-.007.06-.043.132-.08.073-.037.133-.061.133-.054a.51.51 0 0 1-.133.08.44.44 0 0 1-.132.055zm.61-.332a.457.457 0 0 1 .12-.051c.014 0-.015.023-.067.05a.457.457 0 0 1-.12.051c-.014 0 .016-.022.067-.05zm.505-.24a.457.457 0 0 1 .12-.05c.014 0-.016.022-.067.05a.457.457 0 0 1-.12.051c-.014 0 .016-.022.067-.05z" fill="#0d0d0d"/>
</svg>
